<?xml version="1.0" encoding="UTF-8"?><svg id="rgb" xmlns="http://www.w3.org/2000/svg" viewBox="0 0 165 32"><defs><style>.cls-1{fill:#000;stroke-width:0px;}</style></defs><polygon class="cls-1" points="4 12 0 12 0 32 8 32 8 28 4 28 4 12"/><rect class="cls-1" x="32" y="12" width="4" height="4"/><polygon class="cls-1" points="24 20 28 20 28 24 32 24 32 16 24 16 24 20"/><polygon class="cls-1" points="24 8 24 12 32 12 32 4 28 4 28 8 24 8"/><rect class="cls-1" x="8" y="0" width="20" height="4"/><rect class="cls-1" x="8" y="24" width="20" height="4"/><rect class="cls-1" x="4" y="4" width="4" height="8"/><rect class="cls-1" x="60.12" y="14.64" width="2.7" height="8.09"/><polygon class="cls-1" points="52.03 20.03 52.03 17.34 54.73 17.34 54.73 14.64 52.03 14.64 52.03 11.94 49.33 11.94 49.33 30.83 52.03 30.83 52.03 22.73 54.73 22.73 54.73 20.03 52.03 20.03"/><rect class="cls-1" x="54.73" y="22.73" width="5.4" height="2.7"/><rect class="cls-1" x="54.73" y="11.94" width="5.4" height="2.7"/><rect class="cls-1" x="76.31" y="14.64" width="2.7" height="10.79"/><polygon class="cls-1" points="68.21 6.55 65.52 6.55 65.52 25.43 68.21 25.43 68.21 17.34 70.91 17.34 70.91 14.64 68.21 14.64 68.21 6.55"/><rect class="cls-1" x="70.91" y="11.94" width="5.4" height="2.7"/><rect class="cls-1" x="84.4" y="11.94" width="8.09" height="2.7"/><rect class="cls-1" x="81.7" y="14.64" width="2.7" height="8.09"/><rect class="cls-1" x="84.4" y="22.73" width="8.09" height="2.7"/><rect class="cls-1" x="92.49" y="14.64" width="2.7" height="8.09"/><polygon class="cls-1" points="108.68 17.34 100.59 17.34 100.59 14.64 97.89 14.64 97.89 22.73 100.59 22.73 100.59 20.03 111.38 20.03 111.38 14.64 108.68 14.64 108.68 17.34"/><rect class="cls-1" x="100.59" y="22.73" width="10.79" height="2.7"/><rect class="cls-1" x="100.59" y="11.94" width="8.09" height="2.7"/><rect class="cls-1" x="119.47" y="11.94" width="5.4" height="2.7"/><rect class="cls-1" x="124.87" y="14.64" width="2.7" height="10.79"/><polygon class="cls-1" points="116.77 11.94 114.08 11.94 114.08 25.43 116.77 25.43 116.77 17.34 119.47 17.34 119.47 14.64 116.77 14.64 116.77 11.94"/><rect class="cls-1" x="130.26" y="6.55" width="2.7" height="2.7"/><rect class="cls-1" x="130.26" y="11.94" width="2.7" height="13.49"/><rect class="cls-1" x="146.45" y="11.94" width="2.7" height="2.7"/><rect class="cls-1" x="138.36" y="14.64" width="2.7" height="2.7"/><rect class="cls-1" x="135.66" y="11.94" width="2.7" height="2.7"/><rect class="cls-1" x="143.75" y="14.64" width="2.7" height="2.7"/><rect class="cls-1" x="135.66" y="22.73" width="2.7" height="2.7"/><rect class="cls-1" x="143.75" y="20.03" width="2.7" height="2.7"/><rect class="cls-1" x="146.45" y="22.73" width="2.7" height="2.7"/><rect class="cls-1" x="138.36" y="20.03" width="2.7" height="2.7"/><rect class="cls-1" x="141.05" y="17.34" width="2.7" height="2.7"/><polygon class="cls-1" points="162.64 6.55 162.64 14.64 159.94 14.64 159.94 17.34 162.64 17.34 162.64 20.03 159.94 20.03 159.94 22.73 162.64 22.73 162.64 25.43 165.33 25.43 165.33 6.55 162.64 6.55"/><rect class="cls-1" x="154.54" y="11.94" width="5.4" height="2.7"/><rect class="cls-1" x="151.84" y="14.64" width="2.7" height="8.09"/><rect class="cls-1" x="154.54" y="22.73" width="5.4" height="2.7"/></svg>